Run_50002
nRows=4
nColumns=164

# SIMM Motion File Header:
name Run_50002
datacolumns 164
datarows 4
otherdata 1
range 1.39000000 1.42000000
endheader
time	pelvis_tilt	pelvis_list	pelvis_rotation	pelvis_tx	pelvis_ty	pelvis_tz	hip_flexion_r	hip_adduction_r	hip_rotation_r	knee_angle_r	ankle_angle_r	hip_flexion_l	hip_adduction_l	hip_rotation_l	knee_angle_l	ankle_angle_l	lumbar_extension	lumbar_bending	lumbar_rotation	arm_flex_r	arm_add_r	arm_rot_r	elbow_flex_r	pro_sup_r	arm_flex_l	arm_add_l	arm_rot_l	elbow_flex_l	pro_sup_l	subtalar_angle_r	mtp_angle_r	subtalar_angle_l	mtp_angle_l	wrist_flex_r	wrist_dev_r	wrist_flex_l	wrist_dev_l	LASI_tx	LASI_ty	LASI_tz	RASI_tx	RASI_ty	RASI_tz	LPSI_tx	LPSI_ty	LPSI_tz	RPSI_tx	RPSI_ty	RPSI_tz	RTH1_tx	RTH1_ty	RTH1_tz	RTH2_tx	RTH2_ty	RTH2_tz	RTH3_tx	RTH3_ty	RTH3_tz	LTH1_tx	LTH1_ty	LTH1_tz	LTH2_tx	LTH2_ty	LTH2_tz	LTH3_tx	LTH3_ty	LTH3_tz	RTB1_tx	RTB1_ty	RTB1_tz	RTB2_tx	RTB2_ty	RTB2_tz	RTB3_tx	RTB3_ty	RTB3_tz	LTB1_tx	LTB1_ty	LTB1_tz	LTB2_tx	LTB2_ty	LTB2_tz	LTB3_tx	LTB3_ty	LTB3_tz	RCAL_tx	RCAL_ty	RCAL_tz	RTOE_tx	RTOE_ty	RTOE_tz	RMT5_tx	RMT5_ty	RMT5_tz	LCAL_tx	LCAL_ty	LCAL_tz	LTOE_tx	LTOE_ty	LTOE_tz	LMT5_tx	LMT5_ty	LMT5_tz	LACR_tx	LACR_ty	LACR_tz	RACR_tx	RACR_ty	RACR_tz	CLAV_tx	CLAV_ty	CLAV_tz	C7_tx	C7_ty	C7_tz	RUA1_tx	RUA1_ty	RUA1_tz	RUA2_tx	RUA2_ty	RUA2_tz	RUA3_tx	RUA3_ty	RUA3_tz	RLEL_tx	RLEL_ty	RLEL_tz	RMEL_tx	RMEL_ty	RMEL_tz	LUA1_tx	LUA1_ty	LUA1_tz	LUA2_tx	LUA2_ty	LUA2_tz	LUA3_tx	LUA3_ty	LUA3_tz	LLEL_tx	LLEL_ty	LLEL_tz	LMEL_tx	LMEL_ty	LMEL_tz	RFAsuperior_tx	RFAsuperior_ty	RFAsuperior_tz	RFAradius_tx	RFAradius_ty	RFAradius_tz	RFAulna_tx	RFAulna_ty	RFAulna_tz	LFAsuperior_tx	LFAsuperior_ty	LFAsuperior_tz	LFAradius_tx	LFAradius_ty	LFAradius_tz	LFAulna_tx	LFAulna_ty	LFAulna_tz
      1.39000000	    -11.03440174	     -5.09724598	      5.42005641	      0.87556990	      0.94636059	     -0.31161869	     58.90372783	      0.58777690	    -12.19092639	    -46.07475557	      9.95252603	    -14.60033942	     -3.93679905	      4.82594964	    -36.94331212	    -34.88444792	     -0.80187819	      3.56360292	    -14.69043671	    -63.95662352	    -16.87250745	    -10.47344373	     96.46312733	     87.86346483	     11.16902967	    -36.37051497	     10.08256064	    132.02428924	    111.98011691	      0.00000000	      0.00000000	      0.00000000	      0.00000000	      0.00000000	      0.00000000	      0.00000000	      0.00000000	      0.87085174	      0.94872241	     -0.43575646	      0.89503013	      0.97814891	     -0.19844912	      0.72338169	      1.02197575	     -0.35784888	      0.72238538	      1.02520231	     -0.25664585	      0.94389577	      0.79836653	     -0.12519947	      1.04781701	      0.78083366	     -0.14249857	      1.06404550	      0.67316602	     -0.16099816	      0.75138236	      0.76916099	     -0.46975923	      0.74778407	      0.65271176	     -0.45106157	      0.63853927	      0.58939319	     -0.43903053	      1.16233568	      0.49248503	     -0.22890874	      1.13550749	      0.40877980	     -0.18420130	      1.15912047	      0.30396601	     -0.25441980	      0.51822878	      0.41790466	     -0.37794750	      0.42630003	      0.42059349	     -0.43589476	      0.34327079	      0.33664257	     -0.37560107	      1.07392139	      0.17849955	     -0.27469871	      1.29127551	      0.21734603	     -0.30421003	      1.26543818	      0.16453830	     -0.20790932	      0.22943181	      0.38381223	     -0.37960231	      0.19586049	      0.17428410	     -0.31819718	      0.15547763	      0.19628229	     -0.41417562	      0.90208142	      1.44727626	     -0.45929542	      0.87411005	      1.45135325	     -0.17363335	      0.96560132	      1.37386571	     -0.28963054	      0.83334246	      1.47540609	     -0.32481993	      0.77225861	      1.42393123	     -0.09416985	      0.70163368	      1.41557937	     -0.15280789	      0.65933737	      1.37562519	     -0.07703555	      0.58607348	      1.35926670	     -0.06356190	      0.57394580	      1.34936371	     -0.13874180	      0.89994072	      1.34903992	     -0.56776732	      0.85367153	      1.27656705	     -0.57267561	      0.92275246	      1.26267550	     -0.62266275	      0.93582237	      1.18175344	     -0.66854396	      0.90036283	      1.13456455	     -0.62019956	      0.62271367	      1.24995046	     -0.04290391	      0.68412129	      1.13314377	     -0.09343670	      0.61829597	      1.11555352	     -0.07955248	      1.00918738	      1.23708522	     -0.59291933	      1.06574881	      1.26663737	     -0.44211948	      1.10740725	      1.23255232	     -0.48596885
      1.40000000	    -10.69174642	     -4.52936568	      4.91231967	      0.87646434	      0.94598546	     -0.31120472	     55.11264037	      1.39416944	    -12.70951032	    -36.22401338	      9.77018138	    -13.52376583	     -2.72047629	      5.46784644	    -44.45034852	    -34.23420480	     -1.48522000	      3.08897298	    -13.76854573	    -62.95795276	    -16.78577380	     -9.84462085	     97.06434660	     87.97731719	      9.77939917	    -35.99354943	     10.49291536	    131.52149166	    112.62354915	      0.00000000	      0.00000000	      0.00000000	      0.00000000	      0.00000000	      0.00000000	      0.00000000	      0.00000000	      0.87315056	      0.95050893	     -0.43630722	      0.89411470	      0.97711046	     -0.19870353	      0.72433150	      1.02228896	     -0.35885320	      0.72243256	      1.02370032	     -0.25774839	      0.93681277	      0.78616351	     -0.12244438	      1.03845626	      0.76032144	     -0.14016881	      1.04905692	      0.65276020	     -0.16122596	      0.75882035	      0.76604794	     -0.46957250	      0.75877724	      0.64903937	     -0.44872078	      0.65073329	      0.58354409	     -0.44013206	      1.15959975	      0.47763667	     -0.23016091	      1.13938128	      0.39233583	     -0.18624866	      1.17380035	      0.29138427	     -0.25774711	      0.52206115	      0.42037416	     -0.37669401	      0.43107358	      0.43058644	     -0.43479092	      0.33886627	      0.35783243	     -0.37573043	      1.10129487	      0.15908896	     -0.27944725	      1.31299434	      0.22125328	     -0.30931333	      1.29403257	      0.16315936	     -0.21432669	      0.22950217	      0.41586825	     -0.38405866	      0.17617992	      0.21277171	     -0.31635525	      0.14126571	      0.23388204	     -0.41505743	      0.90437954	      1.44624223	     -0.45890529	      0.87685169	      1.45036370	     -0.17280563	      0.96704512	      1.37304120	     -0.28897166	      0.83589022	      1.47571854	     -0.32401008	      0.77525097	      1.42172577	     -0.09200257	      0.70463219	      1.41255810	     -0.15080484	      0.66375580	      1.37167855	     -0.07490103	      0.59038039	      1.35402400	     -0.06140097	      0.57798223	      1.34461367	     -0.13656373	      0.89902052	      1.34764662	     -0.56759927	      0.85031988	      1.27615752	     -0.57146597	      0.91922736	      1.26123756	     -0.62208502	      0.92945339	      1.17998517	     -0.66828281	      0.89213705	      1.13418030	     -0.61994801	      0.62985542	      1.24530945	     -0.04244521	      0.69276529	      1.13012002	     -0.09484389	      0.62751117	      1.11099054	     -0.08045813	      1.00576066	      1.23150927	     -0.59312049	      1.06331467	      1.25808549	     -0.44103088	      1.10372516	      1.22315344	     -0.48528383
      1.41000000	    -10.02698745	     -4.03655734	      4.25364895	      0.87785113	      0.94472986	     -0.31031447	     51.08219486	      2.33268934	    -13.28351853	    -28.28660260	      8.97177470	    -12.47775395	     -1.93344398	      4.81817675	    -52.31145649	    -33.39823641	     -2.38206062	      2.66921855	    -12.56689519	    -61.69811322	    -16.96439786	     -9.05821674	     97.80467525	     87.99652862	      7.79056666	    -35.61065790	     10.54862714	    130.33642189	    113.16286103	      0.00000000	      0.00000000	      0.00000000	      0.00000000	      0.00000000	      0.00000000	      0.00000000	      0.00000000	      0.87625843	      0.95115075	     -0.43697014	      0.89327041	      0.97559438	     -0.19887041	      0.72562065	      1.02091345	     -0.35973569	      0.72238236	      1.02045080	     -0.25906530	      0.92779934	      0.77187949	     -0.12047940	      1.02785629	      0.73903444	     -0.13810459	      1.03486888	      0.63330669	     -0.16123449	      0.76748546	      0.76236187	     -0.46981410	      0.77084108	      0.64505792	     -0.44850430	      0.66431032	      0.57714053	     -0.44146580	      1.15358416	      0.46364001	     -0.23138660	      1.13688314	      0.37744444	     -0.18836179	      1.17903750	      0.28001920	     -0.26030491	      0.52978429	      0.42143008	     -0.37668690	      0.43900743	      0.44147743	     -0.43376303	      0.34017293	      0.37883851	     -0.37597110	      1.11464151	      0.14327422	     -0.28428119	      1.32229488	      0.21982536	     -0.31167227	      1.30712244	      0.15779105	     -0.21855487	      0.23670581	      0.44773481	     -0.38432903	      0.16432330	      0.25048149	     -0.31940383	      0.13310901	      0.27517971	     -0.41830582	      0.90563178	      1.44419929	     -0.45868107	      0.87946318	      1.44812863	     -0.17203340	      0.96790350	      1.37114909	     -0.28840568	      0.83775366	      1.47553684	     -0.32305528	      0.77825238	      1.41805968	     -0.08894048	      0.70740279	      1.40819982	     -0.14746865	      0.66856677	      1.36511743	     -0.07126687	      0.59522629	      1.34568349	     -0.05736501	      0.58196547	      1.33717050	     -0.13257918	      0.89617548	      1.34534722	     -0.56764707	      0.84494323	      1.27559053	     -0.57031604	      0.91312353	      1.25873110	     -0.62163444	      0.91990202	      1.17748885	     -0.66830435	      0.88090396	      1.13325046	     -0.61963320	      0.63861325	      1.23808246	     -0.04070933	      0.70347258	      1.12524188	     -0.09535688	      0.63916049	      1.10428241	     -0.08006156	      1.00013229	      1.22358861	     -0.59325778	      1.06018281	      1.24493933	     -0.44251134	      1.09907892	      1.20919267	     -0.48734333
      1.42000000	     -9.20316161	     -3.57797443	      3.47208238	      0.87957830	      0.94248394	     -0.30930338	     47.43835551	      3.11047155	    -13.88737702	    -23.46441324	      8.00922071	    -11.34507397	     -1.57395263	      3.39754838	    -60.24260238	    -32.95171141	     -3.27147796	      2.27662708	    -11.14929588	    -60.22816922	    -17.42164047	     -8.20548993	     98.63457074	     87.83443733	      5.24866621	    -35.18241441	     10.24856691	    128.56424146	    113.57927246	      0.00000000	      0.00000000	      0.00000000	      0.00000000	      0.00000000	      0.00000000	      0.00000000	      0.00000000	      0.87992513	      0.95043246	     -0.43736104	      0.89234095	      0.97335295	     -0.19857595	      0.72744658	      1.01783195	     -0.36080210	      0.72246615	      1.01576071	     -0.26066992	      0.91859223	      0.75834410	     -0.12061566	      1.01837679	      0.72142995	     -0.13699282	      1.02323071	      0.61740056	     -0.16155422	      0.77636645	      0.75853617	     -0.47065001	      0.78277649	      0.64104951	     -0.45084674	      0.67815240	      0.57041509	     -0.44319149	      1.14412374	      0.44985479	     -0.23231366	      1.12779237	      0.36283620	     -0.19039231	      1.17432519	      0.26757250	     -0.26173010	      0.54115368	      0.42097580	     -0.37850333	      0.45075032	      0.45268942	     -0.43364729	      0.34777118	      0.39822905	     -0.37710091	      1.11286546	      0.12850255	     -0.28902743	      1.32014140	      0.21063175	     -0.31056758	      1.30430475	      0.14497947	     -0.21973639	      0.25227017	      0.47752826	     -0.38057139	      0.15940583	      0.28582968	     -0.32731129	      0.13145101	      0.31960246	     -0.42394925	      0.90555597	      1.44128572	     -0.45847501	      0.88165363	      1.44453431	     -0.17125395	      0.96823600	      1.36821574	     -0.28804326	      0.83840001	      1.47435251	     -0.32179191	      0.78117551	      1.41270216	     -0.08519607	      0.70968111	      1.40224579	     -0.14274000	      0.67331814	      1.35615161	     -0.06634248	      0.60040015	      1.33440372	     -0.05159392	      0.58583638	      1.32702663	     -0.12687774	      0.89134481	      1.34245181	     -0.56775367	      0.83776089	      1.27489877	     -0.56899312	      0.90454637	      1.25544948	     -0.62147979	      0.90751625	      1.17457775	     -0.66858533	      0.86710308	      1.13196842	     -0.61919533	      0.64834130	      1.22849864	     -0.03758409	      0.71593605	      1.11883212	     -0.09489700	      0.65282898	      1.09556877	     -0.07842857	      0.99209653	      1.21395930	     -0.59341096	      1.05550817	      1.22812291	     -0.44658050	      1.09286846	      1.19152632	     -0.49204821
